<svg xmlns="http://www.w3.org/2000/svg" width="3809" height="3809" fill="none" xmlns:v="https://vecta.io/nano"><rect x="1178.32" y="313.319" width="1453.36" height="3182.36" rx="24.163" fill="#fff"/><rect x="1644.58" y="1276.26" width="882.399" height="377.659" rx="35.797" fill="#d5d5d5"/><rect x="1283.03" y="1276.26" width="361.551" height="377.659" rx="35.797" fill="#c4c4c4"/><rect x="1644.58" y="1801.58" width="882.399" height="377.659" rx="35.797" fill="#d5d5d5"/><rect x="1283.03" y="1801.58" width="361.551" height="377.659" rx="35.797" fill="#c4c4c4"/><rect x="1644.58" y="2326.91" width="882.399" height="377.659" rx="35.797" fill="#d5d5d5"/><rect x="1283.03" y="2326.91" width="361.551" height="377.659" rx="35.797" fill="#c4c4c4"/><path d="M1595.08 963.42V833.249h23.58v55.107h60.32v-55.107h23.64V963.42h-23.64v-55.297h-60.32v55.297h-23.58zm194.4-41.059v-56.569h23.01v97.628h-22.31v-17.352h-1.02c-2.2 5.467-5.83 9.937-10.87 13.412-5 3.474-11.16 5.212-18.5 5.212-6.39 0-12.05-1.42-16.97-4.259-4.87-2.881-8.68-7.055-11.44-12.521-2.75-5.509-4.13-12.161-4.13-19.958v-62.162h23.01v58.602c0 6.187 1.7 11.102 5.09 14.746s7.83 5.467 13.34 5.467c3.39 0 6.68-.827 9.85-2.479 3.18-1.653 5.79-4.11 7.82-7.373 2.08-3.305 3.12-7.437 3.12-12.394zm74.76 43.03c-6.19 0-11.76-1.102-16.72-3.305-4.91-2.246-8.81-5.551-11.69-9.916-2.84-4.364-4.26-9.746-4.26-16.144 0-5.509 1.02-10.064 3.05-13.665a23.57 23.57 0 0 1 8.33-8.645c3.51-2.161 7.48-3.792 11.88-4.894 4.45-1.144 9.05-1.97 13.8-2.479l13.92-1.589c3.55-.508 6.14-1.271 7.75-2.288 1.65-1.059 2.48-2.691 2.48-4.894v-.381c0-4.789-1.42-8.496-4.26-11.123s-6.93-3.941-12.27-3.941c-5.63 0-10.1 1.229-13.41 3.686-3.26 2.458-5.46 5.361-6.61 8.708l-21.48-3.051c1.69-5.932 4.49-10.89 8.39-14.873 3.9-4.025 8.66-7.034 14.3-9.025 5.63-2.034 11.86-3.051 18.69-3.051 4.7 0 9.38.551 14.04 1.652s8.92 2.924 12.78 5.466c3.85 2.501 6.95 5.912 9.28 10.234 2.37 4.322 3.56 9.724 3.56 16.208v65.339h-22.12v-13.411h-.76c-1.4 2.712-3.37 5.255-5.92 7.627-2.5 2.331-5.65 4.217-9.47 5.657-3.77 1.399-8.2 2.098-13.28 2.098zm5.97-16.907c4.62 0 8.63-.911 12.02-2.733 3.39-1.865 5.99-4.322 7.82-7.373 1.86-3.051 2.79-6.378 2.79-9.979v-11.505c-.72.594-1.95 1.144-3.68 1.653-1.7.508-3.61.953-5.72 1.335-2.12.381-4.22.72-6.3 1.017l-5.4.762c-3.43.466-6.5 1.229-9.22 2.289-2.71 1.059-4.85 2.542-6.42 4.449-1.56 1.864-2.35 4.279-2.35 7.246 0 4.237 1.55 7.436 4.64 9.597 3.1 2.161 7.04 3.242 11.82 3.242zm88.86 14.936l-27.58-97.628h23.45l17.16 68.645h.89l17.54-68.645h23.2l17.55 68.264h.95l16.91-68.264h23.51l-27.64 97.628h-23.97l-18.3-65.975h-1.34l-18.3 65.975h-24.03zm170.07 1.907c-9.79 0-18.24-2.034-25.36-6.102-7.07-4.11-12.52-9.915-16.33-17.415-3.82-7.543-5.72-16.42-5.72-26.632 0-10.042 1.9-18.856 5.72-26.441 3.85-7.627 9.23-13.559 16.14-17.797 6.91-4.279 15.02-6.419 24.35-6.419 6.01 0 11.69.974 17.03 2.924 5.38 1.906 10.13 4.872 14.24 8.898 4.15 4.025 7.41 9.153 9.79 15.382 2.37 6.186 3.55 13.559 3.55 22.118v7.056h-80.02V905.39h57.97c-.04-4.407-1-8.326-2.86-11.759-1.87-3.474-4.47-6.207-7.82-8.199-3.3-1.992-7.16-2.987-11.57-2.987-4.7 0-8.83 1.144-12.39 3.432-3.56 2.246-6.34 5.212-8.33 8.898-1.95 3.645-2.94 7.649-2.98 12.013v13.539c0 5.678 1.03 10.551 3.11 14.618 2.08 4.026 4.98 7.119 8.71 9.28 3.73 2.119 8.09 3.178 13.09 3.178 3.35 0 6.38-.466 9.09-1.398 2.71-.975 5.06-2.394 7.06-4.259 1.99-1.864 3.49-4.173 4.51-6.928l21.48 2.416c-1.35 5.678-3.94 10.635-7.75 14.873-3.77 4.195-8.6 7.457-14.49 9.788-5.89 2.288-12.63 3.432-20.22 3.432zm62.88-1.907v-97.628h23.01v97.628h-23.01zm11.57-111.484c-3.65 0-6.78-1.208-9.41-3.623-2.63-2.458-3.94-5.403-3.94-8.835 0-3.475 1.31-6.42 3.94-8.835 2.63-2.457 5.76-3.686 9.41-3.686 3.68 0 6.82 1.229 9.4 3.686 2.63 2.415 3.95 5.36 3.95 8.835 0 3.432-1.32 6.377-3.95 8.835-2.58 2.415-5.72 3.623-9.4 3.623zm-655.23 226.624c0-7.55 1-14.49 2.99-20.81 2.01-6.34 5-12.19 8.97-17.57h10.29c-1.53 2-2.96 4.44-4.28 7.34-1.33 2.88-2.49 6.04-3.48 9.48-.96 3.42-1.73 6.97-2.29 10.66-.54 3.68-.82 7.31-.82 10.9 0 4.77.48 9.6 1.42 14.49.97 4.89 2.27 9.43 3.9 13.61 1.65 4.17 3.5 7.58 5.55 10.24h-10.29a59.94 59.94 0 0 1-8.97-17.54c-1.99-6.34-2.99-13.28-2.99-20.8zm55.77-30.92v61.83h-11.2v-50.93h-.36l-14.46 9.24v-10.27l15.36-9.87h10.66zm37.17-.85a25.52 25.52 0 0 1 8.63 1.57c2.82 1.01 5.36 2.66 7.61 4.96 2.25 2.27 4.05 5.32 5.37 9.14 1.33 3.83 2 8.56 2 14.19.02 5.32-.55 10.07-1.69 14.25-1.13 4.17-2.75 7.69-4.86 10.57-2.12 2.88-4.66 5.07-7.64 6.58s-6.33 2.27-10.06 2.27c-3.9 0-7.36-.77-10.38-2.3-3-1.53-5.43-3.62-7.28-6.28-1.85-2.65-2.99-5.69-3.41-9.12h11.02c.56 2.46 1.71 4.41 3.44 5.86 1.75 1.43 3.96 2.14 6.61 2.14 4.29 0 7.59-1.86 9.91-5.58 2.31-3.72 3.47-8.9 3.47-15.52h-.42a16 16 0 0 1-3.84 4.59c-1.57 1.27-3.35 2.24-5.34 2.93a19.19 19.19 0 0 1-6.28 1.03c-3.63 0-6.89-.87-9.78-2.6-2.88-1.73-5.17-4.11-6.86-7.13-1.67-3.02-2.51-6.47-2.53-10.35 0-4.03.92-7.64 2.77-10.84 1.88-3.22 4.48-5.76 7.82-7.61 3.34-1.87 7.25-2.79 11.72-2.75zm.03 9.06c-2.18 0-4.14.53-5.89 1.6-1.73 1.05-3.1 2.48-4.11 4.29-.98 1.79-1.48 3.79-1.48 6.01.02 2.19.52 4.18 1.48 5.97.99 1.8 2.33 3.22 4.02 4.26 1.71 1.05 3.66 1.57 5.86 1.57 1.63 0 3.15-.31 4.56-.93 1.4-.63 2.63-1.49 3.68-2.6 1.07-1.13 1.89-2.41 2.47-3.84a10.98 10.98 0 0 0 .88-4.52c0-2.12-.5-4.07-1.51-5.86-.99-1.79-2.34-3.23-4.08-4.32-1.71-1.08-3.67-1.63-5.88-1.63zm38.08 54.29c-1.84 0-3.41-.65-4.71-1.94a6.26 6.26 0 0 1-1.94-4.71c-.02-1.81.63-3.36 1.94-4.65 1.3-1.28 2.87-1.93 4.71-1.93 1.77 0 3.31.65 4.62 1.93 1.32 1.29 2 2.84 2.02 4.65-.02 1.23-.34 2.35-.97 3.35-.6 1.01-1.41 1.82-2.41 2.42a6.35 6.35 0 0 1-3.26.88zm38.55.18c-4.03 0-7.63-.76-10.81-2.27-3.18-1.53-5.7-3.62-7.58-6.28-1.85-2.65-2.83-5.69-2.96-9.12h10.87c.2 2.54 1.3 4.61 3.29 6.22 2 1.59 4.39 2.39 7.19 2.39 2.19 0 4.15-.5 5.86-1.51a10.81 10.81 0 0 0 4.04-4.2c.99-1.79 1.47-3.83 1.45-6.13.02-2.33-.47-4.4-1.48-6.22-1-1.81-2.38-3.23-4.13-4.25-1.75-1.05-3.77-1.57-6.04-1.57-1.85-.02-3.68.32-5.47 1.02-1.79.71-3.21 1.63-4.25 2.78l-10.12-1.66 3.23-31.88h35.87v9.36h-26.6l-1.78 16.39h.36c1.15-1.35 2.77-2.46 4.86-3.35 2.1-.9 4.39-1.36 6.89-1.36 3.74 0 7.08.89 10.02 2.66 2.94 1.75 5.25 4.17 6.94 7.25 1.69 3.07 2.54 6.6 2.54 10.56 0 4.09-.95 7.73-2.84 10.93-1.87 3.18-4.48 5.69-7.82 7.52-3.32 1.81-7.16 2.72-11.53 2.72zm39.16-8.28c-1.83 0-3.4-.64-4.71-1.93-1.31-1.31-1.95-2.88-1.93-4.71-.02-1.81.62-3.36 1.93-4.65s2.88-1.93 4.71-1.93c1.77 0 3.31.64 4.62 1.93 1.33 1.29 2 2.84 2.02 4.65-.02 1.23-.34 2.35-.97 3.35a6.98 6.98 0 0 1-2.41 2.42c-.99.58-2.07.87-3.26.87zm0-30.64c-1.83 0-3.4-.64-4.71-1.93-1.31-1.31-1.95-2.88-1.93-4.71-.02-1.81.62-3.36 1.93-4.65 1.31-1.31 2.88-1.96 4.71-1.96 1.77 0 3.31.65 4.62 1.96 1.33 1.29 2 2.84 2.02 4.65-.02 1.21-.34 2.31-.97 3.32-.6 1.01-1.41 1.81-2.41 2.41-.99.61-2.07.91-3.26.91zm39.27-24.61c2.96.02 5.84.55 8.63 1.57 2.82 1.01 5.36 2.66 7.61 4.96 2.26 2.27 4.05 5.32 5.38 9.14 1.32 3.83 1.99 8.56 1.99 14.19.02 5.32-.55 10.07-1.69 14.25-1.13 4.17-2.75 7.69-4.86 10.57-2.12 2.88-4.66 5.07-7.64 6.58s-6.33 2.27-10.06 2.27c-3.9 0-7.36-.77-10.38-2.3-3-1.53-5.43-3.62-7.28-6.28-1.85-2.65-2.99-5.69-3.41-9.12h11.02c.56 2.46 1.71 4.41 3.44 5.86 1.75 1.43 3.96 2.14 6.61 2.14 4.29 0 7.59-1.86 9.91-5.58 2.31-3.72 3.47-8.9 3.47-15.52h-.42a16 16 0 0 1-3.84 4.59c-1.57 1.27-3.35 2.24-5.34 2.93-1.97.68-4.07 1.03-6.28 1.03-3.62 0-6.88-.87-9.78-2.6-2.88-1.73-5.17-4.11-6.86-7.13-1.67-3.02-2.51-6.47-2.53-10.35 0-4.03.92-7.64 2.78-10.84 1.87-3.22 4.47-5.76 7.81-7.61 3.35-1.87 7.25-2.79 11.72-2.75zm.03 9.06c-2.17 0-4.14.53-5.89 1.6-1.73 1.05-3.1 2.48-4.1 4.29-.99 1.79-1.48 3.79-1.48 6.01.02 2.19.51 4.18 1.48 5.97.98 1.8 2.32 3.22 4.01 4.26 1.71 1.05 3.66 1.57 5.86 1.57 1.63 0 3.15-.31 4.56-.93 1.41-.63 2.63-1.49 3.68-2.6 1.07-1.13 1.89-2.41 2.48-3.84.6-1.42.89-2.93.87-4.52 0-2.12-.5-4.07-1.51-5.86-.98-1.79-2.34-3.23-4.07-4.32-1.71-1.08-3.68-1.63-5.89-1.63zm44.18 45.17l-.4 3.32c-.28 2.53-.78 5.11-1.51 7.73-.7 2.63-1.45 5.06-2.23 7.27l-1.9 5.23h-7.37l1.15-5.02c.5-2.11.98-4.48 1.45-7.12a70.96 70.96 0 0 0 .93-8.03l.21-3.38h9.67zm51.65 9.36c-4.63 0-8.61-1.02-11.93-3.05-3.3-2.04-5.85-4.84-7.64-8.43-1.77-3.6-2.66-7.74-2.66-12.43 0-4.71.91-8.87 2.72-12.47 1.81-3.63 4.37-6.44 7.67-8.46 3.32-2.03 7.25-3.05 11.78-3.05 3.76 0 7.09.7 9.99 2.09 2.92 1.37 5.24 3.31 6.97 5.82 1.73 2.5 2.72 5.42 2.96 8.76h-10.44c-.43-2.24-1.43-4.1-3.02-5.59-1.57-1.51-3.68-2.26-6.31-2.26-2.24 0-4.2.6-5.89 1.81-1.69 1.19-3.01 2.9-3.96 5.13-.92 2.24-1.39 4.91-1.39 8.03 0 3.16.47 5.88 1.39 8.16.93 2.25 2.23 3.99 3.9 5.22 1.69 1.21 3.67 1.81 5.95 1.81 1.61 0 3.05-.3 4.31-.91 1.29-.62 2.37-1.52 3.23-2.68.87-1.17 1.46-2.59 1.79-4.26h10.44c-.26 3.28-1.23 6.19-2.9 8.73-1.67 2.51-3.94 4.48-6.82 5.91-2.88 1.41-6.26 2.12-10.14 2.12zm49.37 0c-4.65 0-8.67-.97-12.05-2.9-3.36-1.95-5.95-4.71-7.76-8.27-1.81-3.59-2.72-7.8-2.72-12.65 0-4.77.91-8.96 2.72-12.56 1.83-3.63 4.39-6.44 7.67-8.46 3.28-2.03 7.13-3.05 11.56-3.05 2.86 0 5.56.47 8.09 1.39 2.56.91 4.81 2.32 6.77 4.23 1.97 1.91 3.52 4.35 4.65 7.31 1.12 2.93 1.69 6.44 1.69 10.5v3.35h-38.01v-7.36h27.53c-.02-2.1-.47-3.96-1.36-5.59-.88-1.65-2.12-2.95-3.71-3.89-1.57-.95-3.4-1.42-5.5-1.42-2.23 0-4.19.54-5.88 1.63-1.7 1.06-3.01 2.47-3.96 4.22-.93 1.74-1.4 3.64-1.42 5.71v6.43c0 2.7.49 5.01 1.48 6.95.99 1.91 2.37 3.38 4.14 4.4 1.77 1.01 3.84 1.51 6.22 1.51 1.59 0 3.03-.22 4.31-.66 1.29-.46 2.41-1.14 3.35-2.02.95-.89 1.67-1.99 2.15-3.3l10.2 1.15c-.64 2.7-1.87 5.05-3.68 7.07-1.79 1.99-4.09 3.54-6.88 4.65-2.8 1.08-6 1.63-9.6 1.63zm40.79-28.08v27.17h-10.93v-46.37h10.45v7.88h.54a13.28 13.28 0 0 1 5.1-6.19c2.36-1.53 5.27-2.3 8.73-2.3 3.2 0 5.99.69 8.36 2.06 2.4 1.37 4.25 3.35 5.56 5.94 1.33 2.6 1.98 5.75 1.96 9.45v29.53h-10.93v-27.84c0-3.09-.8-5.52-2.41-7.27-1.59-1.75-3.8-2.63-6.62-2.63-1.91 0-3.61.42-5.1 1.27-1.47.83-2.63 2.02-3.47 3.59-.83 1.57-1.24 3.47-1.24 5.71zm64.04-19.2v8.45h-26.66v-8.45h26.66zm-20.08-11.11h10.93v43.53c0 1.47.22 2.6.66 3.38.47.77 1.07 1.29 1.81 1.57.75.29 1.57.43 2.48.43.68 0 1.31-.05 1.87-.15a14.95 14.95 0 0 0 1.33-.28l1.84 8.55c-.58.2-1.42.42-2.5.66-1.07.24-2.38.38-3.93.42-2.74.09-5.2-.33-7.4-1.23-2.19-.93-3.93-2.36-5.22-4.29-1.27-1.93-1.89-4.35-1.87-7.25v-45.34zm49.25 58.39c-4.65 0-8.67-.97-12.05-2.9-3.36-1.95-5.95-4.71-7.76-8.27-1.81-3.59-2.71-7.8-2.71-12.65 0-4.77.9-8.96 2.71-12.56 1.83-3.63 4.39-6.44 7.67-8.46 3.28-2.03 7.14-3.05 11.56-3.05 2.86 0 5.56.47 8.1 1.39 2.55.91 4.81 2.32 6.76 4.23 1.97 1.91 3.52 4.35 4.65 7.31 1.13 2.93 1.69 6.44 1.69 10.5v3.35h-38.01v-7.36h27.53c-.02-2.1-.47-3.96-1.36-5.59-.88-1.65-2.12-2.95-3.71-3.89-1.57-.95-3.4-1.42-5.49-1.42-2.24 0-4.2.54-5.89 1.63a11.22 11.22 0 0 0-3.96 4.22c-.92 1.74-1.4 3.64-1.42 5.71v6.43c0 2.7.5 5.01 1.48 6.95.99 1.91 2.37 3.38 4.14 4.4 1.77 1.01 3.84 1.51 6.22 1.51 1.59 0 3.03-.22 4.32-.66 1.29-.46 2.4-1.14 3.35-2.02.94-.89 1.66-1.99 2.14-3.3l10.21 1.15c-.65 2.7-1.88 5.05-3.69 7.07-1.79 1.99-4.08 3.54-6.88 4.65-2.8 1.08-6 1.63-9.6 1.63zm29.87-.91v-46.37h10.59v7.73h.49c.84-2.68 2.29-4.74 4.34-6.19 2.08-1.47 4.44-2.21 7.1-2.21.6 0 1.28.03 2.02.09.77.04 1.4.11 1.9.22v10.05c-.46-.16-1.2-.3-2.2-.42-.99-.14-1.94-.22-2.87-.22-1.99 0-3.78.44-5.37 1.3-1.57.85-2.81 2.03-3.72 3.54-.9 1.5-1.36 3.25-1.36 5.22v27.26h-10.92zm52.32.91c-4.65 0-8.66-.97-12.04-2.9-3.36-1.95-5.95-4.71-7.76-8.27-1.81-3.59-2.72-7.8-2.72-12.65 0-4.77.91-8.96 2.72-12.56 1.83-3.63 4.39-6.44 7.67-8.46 3.28-2.03 7.13-3.05 11.56-3.05 2.86 0 5.56.47 8.09 1.39 2.56.91 4.81 2.32 6.76 4.23 1.98 1.91 3.53 4.35 4.65 7.31 1.13 2.93 1.69 6.44 1.69 10.5v3.35h-38.01v-7.36h27.54c-.02-2.1-.47-3.96-1.36-5.59-.89-1.65-2.12-2.95-3.71-3.89-1.57-.95-3.41-1.42-5.5-1.42-2.23 0-4.2.54-5.89 1.63a11.12 11.12 0 0 0-3.95 4.22c-.93 1.74-1.4 3.64-1.42 5.71v6.43c0 2.7.49 5.01 1.48 6.95.99 1.91 2.36 3.38 4.14 4.4 1.77 1.01 3.84 1.51 6.21 1.51 1.59 0 3.03-.22 4.32-.66 1.29-.46 2.41-1.14 3.35-2.02.95-.89 1.66-1.99 2.15-3.3l10.2 1.15c-.64 2.7-1.87 5.05-3.68 7.07-1.79 1.99-4.09 3.54-6.89 4.65-2.79 1.08-5.99 1.63-9.6 1.63zm47.08-.09c-3.64 0-6.9-.94-9.78-2.81s-5.16-4.59-6.83-8.15c-1.67-3.57-2.5-7.89-2.5-12.99 0-5.15.84-9.5 2.53-13.04 1.72-3.56 4.02-6.25 6.92-8.06 2.9-1.83 6.13-2.75 9.69-2.75 2.72 0 4.95.47 6.7 1.39 1.75.91 3.14 2.01 4.17 3.29 1.02 1.27 1.82 2.47 2.38 3.6h.46v-23.13h10.96v61.83h-10.75v-7.31h-.67c-.56 1.13-1.38 2.33-2.44 3.6-1.07 1.25-2.48 2.31-4.23 3.2-1.75.88-3.95 1.33-6.61 1.33zm3.05-8.97c2.31 0 4.29-.62 5.92-1.87 1.63-1.27 2.86-3.03 3.71-5.29.84-2.25 1.27-4.88 1.27-7.88 0-2.99-.43-5.6-1.27-7.82-.83-2.21-2.05-3.93-3.68-5.16-1.61-1.23-3.6-1.84-5.95-1.84-2.44 0-4.47.63-6.1 1.9s-2.86 3.02-3.68 5.26c-.83 2.23-1.24 4.79-1.24 7.66 0 2.9.41 5.49 1.24 7.76.84 2.26 2.08 4.04 3.71 5.35 1.65 1.29 3.67 1.93 6.07 1.93zm52.8-17.06c0 7.53-1.01 14.46-3.02 20.8-2 6.32-4.98 12.17-8.94 17.54h-10.3c1.55-1.99 2.98-4.42 4.29-7.3 1.33-2.88 2.48-6.04 3.44-9.48.99-3.44 1.75-7.01 2.3-10.69.56-3.68.84-7.31.84-10.87 0-4.77-.48-9.6-1.45-14.49-.94-4.89-2.24-9.43-3.89-13.62-1.63-4.18-3.47-7.6-5.53-10.26h10.3a59.65 59.65 0 0 1 8.94 17.57c2.01 6.32 3.02 13.25 3.02 20.8z" fill="#000"/><rect x="1178.32" y="313.319" width="1453.36" height="3182.36" rx="24.163" stroke="#aaa" stroke-width="28.638"/></svg>