<svg xmlns="http://www.w3.org/2000/svg" width="3809" height="3809" fill="none" xmlns:v="https://vecta.io/nano"><rect x="1064.11" y="394.111" width="1681.78" height="3019.56" rx="32.25" fill="#fff"/><rect x="1607.03" y="1278" width="1010.21" height="432.363" rx="40.982" fill="#d5d5d5"/><rect x="1193.11" y="1278" width="413.921" height="432.363" rx="40.982" fill="#c4c4c4"/><rect x="1607.03" y="1879.42" width="1010.21" height="432.363" rx="40.982" fill="#d5d5d5"/><rect x="1193.11" y="1879.42" width="413.921" height="432.363" rx="40.982" fill="#c4c4c4"/><rect x="1607.03" y="2480.83" width="1010.21" height="432.363" rx="40.982" fill="#d5d5d5"/><rect x="1193.11" y="2480.83" width="413.921" height="432.363" rx="40.982" fill="#c4c4c4"/><path d="M1502.64 903.028V795.856h25.26v107.172h-25.26zm12.7-122.383c-4 0-7.45-1.326-10.33-3.977-2.88-2.698-4.33-5.931-4.33-9.699 0-3.814 1.45-7.047 4.33-9.698 2.88-2.698 6.33-4.047 10.33-4.047 4.04 0 7.49 1.349 10.32 4.047 2.89 2.651 4.33 5.884 4.33 9.698 0 3.768-1.44 7.001-4.33 9.699-2.83 2.651-6.28 3.977-10.32 3.977zm39.65 122.383V760.131h53.58c10.98 0 20.19 2.047 27.63 6.14 7.49 4.094 13.14 9.722 16.96 16.886 3.86 7.117 5.79 15.21 5.79 24.281 0 9.164-1.93 17.304-5.79 24.421s-9.56 12.722-17.1 16.815c-7.53 4.047-16.81 6.07-27.84 6.07h-35.51v-21.28h32.02c6.42 0 11.68-1.117 15.77-3.35 4.1-2.232 7.12-5.302 9.07-9.21 2-3.907 3-8.396 3-13.466s-1-9.536-3-13.397c-1.95-3.86-5-6.861-9.14-9-4.09-2.187-9.37-3.28-15.84-3.28h-23.72v121.267h-25.88zm150.58-62.796v62.796h-25.25V760.131h24.7v53.935h1.25c2.51-6.047 6.4-10.814 11.65-14.303 5.31-3.535 12.05-5.303 20.24-5.303 7.44 0 13.93 1.558 19.47 4.675 5.53 3.116 9.81 7.675 12.83 13.676 3.07 6 4.61 13.326 4.61 21.978v68.239h-25.26v-64.331c0-7.21-1.86-12.816-5.58-16.816-3.68-4.047-8.84-6.07-15.49-6.07-4.47 0-8.47.977-12 2.93-3.49 1.907-6.23 4.675-8.23 8.303-1.96 3.629-2.94 8.024-2.94 13.188zm141.99 64.889c-10.46 0-19.53-2.302-27.21-6.908-7.67-4.605-13.63-11.047-17.86-19.327-4.19-8.28-6.28-17.955-6.28-29.026s2.09-20.769 6.28-29.095c4.23-8.327 10.19-14.792 17.86-19.397 7.68-4.605 16.75-6.908 27.21-6.908 10.47 0 19.54 2.303 27.22 6.908 7.67 4.605 13.6 11.07 17.79 19.397 4.23 8.326 6.35 18.025 6.35 29.095s-2.12 20.746-6.35 29.026c-4.19 8.28-10.12 14.722-17.79 19.327-7.68 4.606-16.75 6.908-27.22 6.908zm.14-20.234c5.68 0 10.42-1.559 14.24-4.675 3.81-3.163 6.65-7.396 8.51-12.699 1.91-5.303 2.86-11.21 2.86-17.722 0-6.559-.95-12.49-2.86-17.793-1.86-5.349-4.7-9.605-8.51-12.768-3.82-3.163-8.56-4.745-14.24-4.745-5.81 0-10.65 1.582-14.51 4.745-3.81 3.163-6.67 7.419-8.58 12.768-1.86 5.303-2.79 11.234-2.79 17.793 0 6.512.93 12.419 2.79 17.722 1.91 5.303 4.77 9.536 8.58 12.699 3.86 3.116 8.7 4.675 14.51 4.675zm97.91-44.655v62.796h-25.25V795.856h24.14v18.21h1.25c2.47-6 6.4-10.768 11.79-14.303 5.45-3.535 12.17-5.303 20.17-5.303 7.4 0 13.84 1.582 19.33 4.745 5.53 3.163 9.81 7.745 12.84 13.745 3.07 6.001 4.58 13.28 4.53 21.839v68.239h-25.26v-64.331c0-7.164-1.86-12.769-5.58-16.816-3.67-4.047-8.77-6.07-15.28-6.07-4.42 0-8.35.977-11.79 2.93-3.4 1.907-6.07 4.675-8.03 8.303-1.9 3.629-2.86 8.024-2.86 13.188zm141.92 64.889c-10.74 0-20.02-2.233-27.84-6.698-7.76-4.512-13.74-10.885-17.93-19.118-4.18-8.28-6.28-18.025-6.28-29.235 0-11.025 2.1-20.7 6.28-29.026 4.23-8.373 10.14-14.885 17.72-19.537 7.59-4.698 16.49-7.047 26.73-7.047 6.6 0 12.84 1.07 18.7 3.21 5.9 2.093 11.11 5.349 15.63 9.768 4.55 4.419 8.14 10.047 10.74 16.885 2.61 6.791 3.91 14.885 3.91 24.281v7.745h-87.85v-17.025h63.64c-.05-4.837-1.1-9.14-3.14-12.908-2.05-3.814-4.91-6.814-8.58-9-3.63-2.187-7.87-3.28-12.7-3.28-5.17 0-9.7 1.256-13.61 3.768a25.96 25.96 0 0 0-9.14 9.768c-2.14 4.001-3.23 8.396-3.28 13.188v14.861c0 6.233 1.14 11.583 3.42 16.048 2.28 4.419 5.47 7.815 9.56 10.187 4.09 2.326 8.88 3.489 14.37 3.489 3.68 0 7-.512 9.98-1.535 2.98-1.07 5.56-2.628 7.74-4.675 2.19-2.047 3.84-4.582 4.96-7.605l23.58 2.651c-1.49 6.233-4.32 11.676-8.51 16.327-4.14 4.605-9.44 8.187-15.91 10.745-6.46 2.512-13.86 3.768-22.19 3.768zm168.28-.14c-10.37 0-19.58-1.744-27.63-5.233-8-3.488-14.28-8.256-18.84-14.303-4.51-6.094-6.74-13.001-6.7-20.723-.04-6 1.26-11.513 3.91-16.536s6.23-9.21 10.74-12.56c4.56-3.395 9.63-5.558 15.22-6.488v-.977c-7.35-1.628-13.31-5.373-17.87-11.234-4.51-5.907-6.74-12.722-6.7-20.444-.04-7.349 2.01-13.908 6.15-19.676 4.13-5.768 9.81-10.303 17.02-13.606 7.21-3.349 15.44-5.023 24.7-5.023 9.16 0 17.33 1.674 24.49 5.023 7.21 3.303 12.89 7.838 17.03 13.606 4.18 5.768 6.27 12.327 6.27 19.676 0 7.722-2.3 14.537-6.9 20.444-4.56 5.861-10.45 9.606-17.66 11.234v.977a33.69 33.69 0 0 1 15.08 6.488c4.51 3.35 8.09 7.536 10.74 12.56 2.7 5.023 4.05 10.536 4.05 16.536 0 7.722-2.28 14.629-6.84 20.723-4.56 6.047-10.84 10.815-18.84 14.303-7.95 3.489-17.09 5.233-27.42 5.233zm0-19.955c5.35 0 10-.907 13.95-2.721 3.96-1.861 7.03-4.465 9.21-7.815 2.19-3.349 3.31-7.21 3.35-11.582-.04-4.559-1.23-8.582-3.55-12.071-2.28-3.535-5.42-6.303-9.42-8.303-3.96-2-8.47-3-13.54-3-5.12 0-9.68 1-13.68 3s-7.16 4.768-9.49 8.303c-2.27 3.489-3.39 7.512-3.34 12.071-.05 4.372 1.02 8.233 3.21 11.582 2.18 3.303 5.25 5.885 9.21 7.745 4 1.861 8.69 2.791 14.09 2.791zm0-65.099c4.37 0 8.23-.883 11.58-2.651 3.4-1.768 6.07-4.233 8.03-7.396 1.95-3.163 2.95-6.815 3-10.954-.05-4.094-1.03-7.676-2.93-10.746-1.91-3.116-4.56-5.512-7.96-7.186-3.39-1.721-7.3-2.582-11.72-2.582-4.51 0-8.49.861-11.93 2.582-3.4 1.674-6.05 4.07-7.96 7.186-1.86 3.07-2.76 6.652-2.72 10.746-.04 4.139.89 7.791 2.79 10.954 1.96 3.117 4.63 5.582 8.03 7.396 3.44 1.768 7.37 2.651 11.79 2.651zM1747.7 1045.48c0-10.47 1.38-20.08 4.14-28.84 2.79-8.8 6.94-16.917 12.44-24.369h14.27c-2.12 2.763-4.1 6.154-5.94 10.169-1.84 4-3.45 8.38-4.82 13.15-1.34 4.74-2.4 9.67-3.18 14.78-.75 5.11-1.13 10.14-1.13 15.11 0 6.62.66 13.31 1.97 20.1 1.34 6.78 3.14 13.07 5.4 18.88 2.29 5.77 4.86 10.5 7.7 14.19h-14.27a83.22 83.22 0 0 1-12.44-24.32c-2.76-8.8-4.14-18.41-4.14-28.85zm77.33-42.87v85.74h-15.53v-70.63h-.5l-20.05 12.82v-14.24l21.3-13.69h14.78zm53.17 86.91a36.35 36.35 0 0 1-12.01-2.13c-3.91-1.43-7.43-3.73-10.55-6.91-3.13-3.21-5.61-7.47-7.46-12.77-1.84-5.33-2.75-11.93-2.72-19.8 0-7.34.78-13.89 2.35-19.64 1.56-5.74 3.81-10.6 6.74-14.56 2.93-4 6.46-7.04 10.59-9.13 4.16-2.09 8.8-3.14 13.94-3.14 5.39 0 10.16 1.06 14.32 3.18 4.18 2.12 7.56 5.02 10.13 8.71 2.57 3.66 4.16 7.79 4.77 12.39h-15.28c-.78-3.29-2.39-5.92-4.81-7.87-2.4-1.98-5.45-2.97-9.13-2.97-5.95 0-10.52 2.58-13.73 7.74-3.18 5.17-4.79 12.26-4.82 21.27h.59a21.45 21.45 0 0 1 5.32-6.32c2.17-1.76 4.63-3.11 7.36-4.06 2.77-.98 5.68-1.47 8.75-1.47 5.03 0 9.53 1.2 13.53 3.6 4.02 2.4 7.2 5.71 9.54 9.92 2.35 4.19 3.5 8.99 3.48 14.41.02 5.63-1.26 10.7-3.86 15.19-2.59 4.47-6.21 7.98-10.84 10.55s-10.03 3.84-16.2 3.81zm-.08-12.56c3.04 0 5.76-.74 8.16-2.22s4.3-3.47 5.69-5.98c1.4-2.51 2.08-5.33 2.05-8.46.03-3.07-.64-5.85-2-8.33-1.34-2.48-3.2-4.45-5.57-5.9-2.38-1.45-5.08-2.18-8.12-2.18-2.27 0-4.37.43-6.33 1.3a15.55 15.55 0 0 0-5.1 3.6c-1.45 1.51-2.6 3.26-3.44 5.27-.81 1.98-1.22 4.11-1.25 6.37.03 2.98.72 5.73 2.09 8.24a16.05 16.05 0 0 0 5.65 6.03c2.4 1.51 5.12 2.26 8.17 2.26zm54.63 1.09a8.95 8.95 0 0 1-6.53-2.68c-1.82-1.81-2.71-3.99-2.68-6.53-.03-2.51.86-4.66 2.68-6.45 1.81-1.78 3.99-2.68 6.53-2.68 2.46 0 4.59.9 6.4 2.68 1.85 1.79 2.78 3.94 2.81 6.45-.03 1.7-.48 3.25-1.34 4.65a9.68 9.68 0 0 1-3.35 3.35c-1.37.81-2.87 1.21-4.52 1.21zm0-42.49a8.95 8.95 0 0 1-6.53-2.68c-1.82-1.81-2.71-3.99-2.68-6.53-.03-2.51.86-4.66 2.68-6.45 1.81-1.81 3.99-2.72 6.53-2.72 2.46 0 4.59.91 6.4 2.72 1.85 1.79 2.78 3.94 2.81 6.45-.03 1.67-.48 3.21-1.34 4.6-.84 1.4-1.95 2.52-3.35 3.35-1.37.84-2.87 1.26-4.52 1.26zm54.45-34.12c4.11.03 8.1.75 11.98 2.18 3.9 1.39 7.42 3.68 10.55 6.86 3.12 3.16 5.61 7.38 7.45 12.69 1.84 5.3 2.76 11.86 2.76 19.67.03 7.37-.75 13.96-2.34 19.76-1.57 5.78-3.81 10.66-6.74 14.66-2.93 3.99-6.46 7.03-10.59 9.12-4.14 2.1-8.78 3.14-13.95 3.14-5.41 0-10.21-1.06-14.4-3.18-4.16-2.12-7.52-5.02-10.09-8.71-2.56-3.68-4.14-7.9-4.73-12.64h15.28c.79 3.4 2.38 6.11 4.78 8.12 2.42 1.98 5.48 2.97 9.16 2.97 5.95 0 10.53-2.58 13.74-7.74s4.81-12.34 4.81-21.52h-.59c-1.36 2.46-3.14 4.58-5.31 6.36-2.18 1.76-4.65 3.12-7.41 4.06-2.74.95-5.64 1.43-8.71 1.43-5.02 0-9.55-1.2-13.56-3.6-4-2.4-7.16-5.7-9.51-9.88-2.31-4.19-3.49-8.98-3.51-14.36 0-5.58 1.28-10.59 3.85-15.03 2.59-4.47 6.21-7.98 10.84-10.55 4.63-2.6 10.05-3.87 16.24-3.81zm.05 12.56c-3.02 0-5.74.74-8.17 2.22-2.4 1.45-4.3 3.43-5.69 5.94-1.37 2.49-2.05 5.26-2.05 8.33.03 3.05.71 5.81 2.05 8.29 1.37 2.49 3.22 4.45 5.57 5.91 2.37 1.45 5.08 2.17 8.12 2.17 2.26 0 4.37-.43 6.32-1.3a15.59 15.59 0 0 0 5.11-3.6c1.48-1.56 2.62-3.33 3.43-5.31.84-1.98 1.24-4.08 1.21-6.28 0-2.93-.69-5.64-2.09-8.12a16.16 16.16 0 0 0-5.65-5.99c-2.37-1.51-5.09-2.26-8.16-2.26zm73.84 31.48c0 10.44-1.39 20.05-4.18 28.85-2.77 8.76-6.9 16.87-12.39 24.32h-14.28c2.15-2.76 4.13-6.14 5.95-10.13 1.84-3.99 3.43-8.38 4.77-13.15 1.37-4.77 2.43-9.71 3.18-14.82.78-5.11 1.17-10.13 1.17-15.07 0-6.61-.67-13.31-2.01-20.09-1.31-6.79-3.11-13.08-5.4-18.88-2.26-5.81-4.81-10.555-7.66-14.239h14.28c5.49 7.452 9.62 15.569 12.39 24.369 2.79 8.76 4.18 18.37 4.18 28.84z" fill="#000"/><rect x="1064.11" y="394.111" width="1681.78" height="3019.56" rx="32.25" stroke="#aaa" stroke-width="38.222"/></svg>