<svg xmlns="http://www.w3.org/2000/svg" width="3809" height="3809" fill="none" xmlns:v="https://vecta.io/nano"><rect x="1642.47" y="1540.92" width="889.543" height="380.717" rx="36.087" fill="#d5d5d5"/><rect x="1277.99" y="1540.92" width="364.478" height="380.717" rx="36.087" fill="#c4c4c4"/><rect x="1642.47" y="2070.5" width="889.543" height="380.717" rx="36.087" fill="#d5d5d5"/><rect x="1277.99" y="2070.5" width="364.478" height="380.717" rx="36.087" fill="#c4c4c4"/><rect x="1642.47" y="2600.08" width="889.543" height="380.717" rx="36.087" fill="#d5d5d5"/><rect x="1277.99" y="2600.08" width="364.478" height="380.717" rx="36.087" fill="#c4c4c4"/><path d="M1457.4 1037.3V919.201h27.83V1037.3h-27.83zm13.99-134.861c-4.41 0-8.2-1.46-11.38-4.382-3.18-2.973-4.77-6.536-4.77-10.688 0-4.203 1.59-7.766 4.77-10.688 3.18-2.973 6.97-4.459 11.38-4.459 4.46 0 8.25 1.486 11.38 4.459 3.18 2.922 4.77 6.485 4.77 10.688 0 4.152-1.59 7.715-4.77 10.688-3.13 2.922-6.92 4.382-11.38 4.382zm43.69 134.861V879.834h59.05c12.1 0 22.25 2.255 30.45 6.766 8.25 4.511 14.48 10.713 18.69 18.607 4.25 7.843 6.38 16.762 6.38 26.758 0 10.098-2.13 19.069-6.38 26.912-4.26 7.842-10.54 14.019-18.84 18.53-8.31 4.46-18.53 6.689-30.68 6.689h-39.14v-23.451h35.29c7.08 0 12.87-1.23 17.38-3.691s7.84-5.843 10-10.149c2.2-4.306 3.3-9.253 3.3-14.84s-1.1-10.508-3.3-14.763c-2.16-4.254-5.51-7.561-10.08-9.918-4.51-2.41-10.32-3.614-17.45-3.614h-26.14v133.63h-28.53zm165.95-69.197v69.197h-27.83V879.834h27.21v59.436h1.39c2.77-6.664 7.05-11.918 12.84-15.763 5.84-3.895 13.28-5.843 22.3-5.843 8.2 0 15.35 1.717 21.45 5.151s10.82 8.458 14.15 15.071c3.38 6.612 5.07 14.686 5.07 24.22v75.194h-27.83v-70.888c0-7.945-2.05-14.122-6.15-18.531-4.05-4.459-9.74-6.689-17.07-6.689-4.92 0-9.33 1.076-13.23 3.229-3.84 2.102-6.87 5.152-9.07 9.15-2.15 3.998-3.23 8.843-3.23 14.532zm156.47 71.507c-11.53 0-21.53-2.54-29.99-7.61-8.45-5.08-15.02-12.18-19.68-21.3-4.61-9.12-6.92-19.786-6.92-31.986s2.31-22.887 6.92-32.063c4.66-9.175 11.23-16.301 19.68-21.375 8.46-5.075 18.46-7.612 29.99-7.612s21.53 2.537 29.99 7.612 14.99 12.2 19.6 21.375c4.67 9.176 7 19.863 7 32.063s-2.33 22.866-7 31.986c-4.61 9.12-11.14 16.22-19.6 21.3-8.46 5.07-18.46 7.61-29.99 7.61zm.15-22.3c6.26 0 11.49-1.71 15.69-5.15 4.2-3.48 7.33-8.15 9.38-13.993 2.1-5.843 3.15-12.353 3.15-19.53 0-7.227-1.05-13.763-3.15-19.607-2.05-5.895-5.18-10.585-9.38-14.07s-9.43-5.229-15.69-5.229c-6.4 0-11.73 1.743-15.99 5.229-4.2 3.485-7.35 8.175-9.46 14.07-2.05 5.844-3.07 12.38-3.07 19.607 0 7.177 1.02 13.687 3.07 19.53 2.11 5.843 5.26 10.513 9.46 13.993 4.26 3.44 9.59 5.15 15.99 5.15zm107.9-49.207v69.197h-27.83V919.201h26.6v20.069h1.38c2.72-6.613 7.05-11.867 13-15.763 6-3.895 13.4-5.843 22.22-5.843 8.15 0 15.25 1.742 21.3 5.228 6.1 3.486 10.81 8.535 14.15 15.147 3.38 6.613 5.04 14.635 4.99 24.067v75.194h-27.83v-70.888c0-7.894-2.05-14.071-6.15-18.531-4.05-4.459-9.66-6.689-16.84-6.689-4.87 0-9.2 1.076-13 3.229-3.74 2.102-6.68 5.152-8.84 9.15-2.1 3.998-3.15 8.843-3.15 14.532zm156.39 71.507c-11.84 0-22.06-2.46-30.68-7.38-8.56-4.97-15.14-12-19.76-21.07-4.61-9.12-6.92-19.862-6.92-32.215 0-12.149 2.31-22.811 6.92-31.986 4.67-9.227 11.18-16.404 19.53-21.529 8.36-5.178 18.18-7.766 29.45-7.766 7.28 0 14.15 1.179 20.61 3.537 6.51 2.306 12.25 5.894 17.22 10.764 5.03 4.87 8.97 11.072 11.84 18.607 2.87 7.484 4.31 16.404 4.31 26.758v8.535h-96.8v-18.761h70.12c-.05-5.331-1.21-10.073-3.46-14.225-2.26-4.203-5.41-7.509-9.46-9.919-4-2.409-8.66-3.613-13.99-3.613-5.69 0-10.69 1.384-15 4.152a28.65 28.65 0 0 0-10.07 10.764c-2.36 4.409-3.56 9.253-3.61 14.532v16.378c0 6.869 1.25 12.764 3.76 17.687 2.52 4.87 6.03 8.61 10.54 11.22 4.51 2.57 9.79 3.85 15.84 3.85 4.05 0 7.71-.57 10.99-1.69 3.28-1.18 6.13-2.9 8.54-5.16 2.41-2.25 4.23-5.04 5.46-8.38l25.99 2.93c-1.64 6.86-4.77 12.86-9.38 17.99-4.57 5.07-10.41 9.02-17.54 11.84-7.12 2.77-15.27 4.15-24.45 4.15zm154.84-159.776l34.68 57.667h1.23l34.83-57.667h32.52l-48.51 78.735 49.28 78.731h-33.06l-35.06-57.279h-1.23l-35.06 57.279h-32.91l49.74-78.731-49.13-78.735h32.68zm-621.72 300.896c0-13.48 1.78-25.86 5.34-37.15 3.59-11.32 8.93-21.78 16.01-31.37h18.38c-2.73 3.55-5.28 7.92-7.65 13.1-2.37 5.14-4.44 10.78-6.2 16.92-1.73 6.11-3.09 12.46-4.1 19.04-.97 6.57-1.46 13.06-1.46 19.46 0 8.52.85 17.14 2.54 25.88 1.72 8.73 4.04 16.84 6.95 24.31 2.95 7.44 6.26 13.53 9.92 18.28h-18.38c-7.08-9.6-12.42-20.04-16.01-31.33-3.56-11.32-5.34-23.7-5.34-37.14zm99.59-55.21v110.41h-20v-90.95h-.65l-25.82 16.5v-18.33l27.44-17.63h19.03zm66.37-1.51a45.31 45.31 0 0 1 15.42 2.81c5.03 1.79 9.56 4.74 13.58 8.84 4.03 4.06 7.23 9.5 9.6 16.33s3.56 15.28 3.56 25.34c.03 9.49-.97 17.97-3.02 25.45-2.02 7.44-4.91 13.73-8.68 18.87-3.78 5.14-8.32 9.06-13.64 11.75-5.32 2.7-11.31 4.04-17.96 4.04-6.97 0-13.15-1.36-18.54-4.09-5.36-2.73-9.69-6.47-12.99-11.22-3.31-4.74-5.34-10.17-6.1-16.28h19.68c1.01 4.39 3.06 7.87 6.15 10.46 3.12 2.55 7.06 3.83 11.8 3.83 7.66 0 13.55-3.33 17.69-9.98 4.13-6.64 6.2-15.88 6.2-27.71h-.76c-1.76 3.17-4.04 5.9-6.84 8.2-2.81 2.26-5.99 4.01-9.55 5.23-3.52 1.22-7.26 1.83-11.21 1.83-6.47 0-12.29-1.54-17.47-4.64-5.14-3.09-9.22-7.33-12.24-12.72-2.98-5.39-4.49-11.55-4.53-18.49 0-7.19 1.66-13.64 4.96-19.36 3.35-5.75 8-10.27 13.97-13.58 5.96-3.34 12.94-4.98 20.92-4.91zm.05 16.18c-3.88 0-7.39.95-10.51 2.85-3.09 1.87-5.54 4.42-7.34 7.66-1.76 3.2-2.64 6.77-2.64 10.73.04 3.92.92 7.47 2.64 10.67 1.77 3.2 4.16 5.74 7.18 7.6 3.05 1.87 6.54 2.81 10.45 2.81 2.92 0 5.63-.56 8.15-1.67 2.51-1.12 4.7-2.66 6.57-4.64a21.83 21.83 0 0 0 4.42-6.85c1.08-2.55 1.6-5.24 1.57-8.08 0-3.78-.9-7.26-2.7-10.46a20.8 20.8 0 0 0-7.28-7.71c-3.05-1.94-6.56-2.91-10.51-2.91zm68 96.93c-3.27 0-6.08-1.15-8.41-3.45-2.34-2.3-3.49-5.1-3.45-8.41-.04-3.23 1.11-6 3.45-8.3 2.33-2.3 5.14-3.45 8.41-3.45 3.16 0 5.91 1.15 8.25 3.45 2.37 2.3 3.57 5.07 3.61 8.3-.04 2.19-.61 4.19-1.73 5.98a12.38 12.38 0 0 1-4.31 4.32c-1.76 1.04-3.7 1.56-5.82 1.56zm68.84.32c-7.18 0-13.62-1.34-19.3-4.04-5.68-2.73-10.19-6.47-13.53-11.21-3.31-4.75-5.07-10.17-5.28-16.28h19.41c.36 4.52 2.31 8.23 5.87 11.1 3.56 2.84 7.84 4.26 12.83 4.26 3.92 0 7.41-.9 10.46-2.7 3.06-1.79 5.47-4.29 7.23-7.49s2.62-6.85 2.58-10.94c.04-4.17-.84-7.87-2.64-11.11-1.79-3.23-4.26-5.77-7.38-7.6-3.13-1.87-6.72-2.8-10.79-2.8-3.3-.04-6.55.57-9.75 1.83s-5.74 2.91-7.61 4.96l-18.06-2.97 5.77-56.93h64.05v16.71h-47.5l-3.18 29.28h.65c2.05-2.41 4.94-4.4 8.68-5.98 3.74-1.62 7.83-2.43 12.29-2.43 6.69 0 12.65 1.58 17.9 4.74 5.25 3.13 9.38 7.44 12.4 12.94s4.53 11.79 4.53 18.87c0 7.3-1.69 13.8-5.07 19.52-3.34 5.68-8 10.15-13.96 13.42-5.93 3.24-12.8 4.85-20.6 4.85zm69.93-14.77c-3.27 0-6.08-1.15-8.41-3.45-2.34-2.33-3.49-5.14-3.45-8.41-.04-3.23 1.11-6 3.45-8.3 2.33-2.3 5.14-3.45 8.41-3.45 3.16 0 5.91 1.15 8.25 3.45 2.37 2.3 3.57 5.07 3.61 8.3-.04 2.19-.61 4.19-1.73 5.99-1.07 1.79-2.51 3.23-4.31 4.31-1.76 1.04-3.7 1.56-5.82 1.56zm0-54.72c-3.27 0-6.08-1.15-8.41-3.45-2.34-2.34-3.49-5.14-3.45-8.41-.04-3.23 1.11-6 3.45-8.3 2.33-2.34 5.14-3.51 8.41-3.51 3.16 0 5.91 1.17 8.25 3.51 2.37 2.3 3.57 5.07 3.61 8.3-.04 2.16-.61 4.13-1.73 5.93a12.19 12.19 0 0 1-4.31 4.31c-1.76 1.08-3.7 1.62-5.82 1.62zm70.12-43.94a45.22 45.22 0 0 1 15.42 2.81c5.04 1.79 9.56 4.74 13.59 8.84 4.03 4.06 7.22 9.5 9.6 16.33 2.37 6.83 3.55 15.28 3.55 25.34.04 9.49-.97 17.97-3.01 25.45-2.02 7.44-4.91 13.73-8.68 18.87-3.78 5.14-8.33 9.06-13.64 11.75-5.32 2.7-11.31 4.04-17.96 4.04-6.97 0-13.15-1.36-18.54-4.09-5.36-2.73-9.69-6.47-13-11.22-3.3-4.74-5.33-10.17-6.09-16.28h19.68c1.01 4.39 3.05 7.87 6.15 10.46 3.12 2.55 7.06 3.83 11.8 3.83 7.66 0 13.55-3.33 17.69-9.98 4.13-6.64 6.2-15.88 6.2-27.71h-.76a28.16 28.16 0 0 1-6.85 8.2c-2.8 2.26-5.98 4.01-9.54 5.23-3.52 1.22-7.26 1.83-11.21 1.83-6.47 0-12.29-1.54-17.47-4.64-5.14-3.09-9.22-7.33-12.24-12.72-2.98-5.39-4.49-11.55-4.53-18.49 0-7.19 1.66-13.64 4.96-19.36 3.35-5.75 8-10.27 13.97-13.58 5.96-3.34 12.94-4.98 20.91-4.91zm.06 16.18c-3.88 0-7.39.95-10.51 2.85-3.1 1.87-5.54 4.42-7.34 7.66-1.76 3.2-2.64 6.77-2.64 10.73.04 3.92.92 7.47 2.64 10.67 1.76 3.2 4.15 5.74 7.17 7.6 3.06 1.87 6.55 2.81 10.46 2.81 2.91 0 5.63-.56 8.14-1.67 2.52-1.12 4.71-2.66 6.58-4.64a21.83 21.83 0 0 0 4.42-6.85c1.08-2.55 1.6-5.24 1.57-8.08 0-3.78-.9-7.26-2.7-10.46a20.8 20.8 0 0 0-7.28-7.71c-3.05-1.94-6.56-2.91-10.51-2.91zm95.1 40.54c0 13.44-1.8 25.82-5.39 37.14-3.56 11.29-8.88 21.73-15.96 31.33h-18.38c2.76-3.56 5.32-7.91 7.65-13.05 2.37-5.14 4.42-10.78 6.15-16.93 1.76-6.14 3.13-12.51 4.1-19.08 1-6.58 1.51-13.05 1.51-19.41 0-8.52-.87-17.15-2.59-25.88-1.69-8.73-4.01-16.84-6.96-24.31-2.91-7.48-6.2-13.59-9.86-18.33h18.38c7.08 9.59 12.4 20.05 15.96 31.37 3.59 11.29 5.39 23.67 5.39 37.15z" fill="#000"/><rect x="1172.43" y="300.435" width="1465.13" height="3208.13" rx="24.359" stroke="#aaa" stroke-width="28.87"/></svg>